<mxfile host="app.diagrams.net" modified="2023-04-23T22:41:31.499Z" agent="Mozilla/5.0 (Windows NT 10.0; Win64; x64) AppleWebKit/537.36 (KHTML, like Gecko) Chrome/112.0.0.0 Safari/537.36" etag="bNUGQMRZtfuIWRhUJoP8" version="21.2.1" type="github">
  <diagram name="Σελίδα-1" id="Zhi5J0B4HPHJcdFYolu9">
    <mxGraphModel dx="816" dy="708" grid="1" gridSize="10" guides="1" tooltips="1" connect="1" arrows="1" fold="1" page="1" pageScale="1" pageWidth="827" pageHeight="1169" math="0" shadow="1">
      <root>
        <mxCell id="0" />
        <mxCell id="1" parent="0" />
        <mxCell id="w70OvWrSIaJXiOuPBBVO-3" value="&lt;font style=&quot;font-size: 10px;&quot;&gt;Φοιτητής&lt;/font&gt;" style="shape=umlActor;verticalLabelPosition=bottom;verticalAlign=top;html=1;outlineConnect=0;align=center;" parent="1" vertex="1">
          <mxGeometry x="40" y="50" width="30" height="60" as="geometry" />
        </mxCell>
        <mxCell id="w70OvWrSIaJXiOuPBBVO-5" value="" style="endArrow=classic;html=1;rounded=0;" parent="1" edge="1">
          <mxGeometry relative="1" as="geometry">
            <mxPoint x="80" y="79.5" as="sourcePoint" />
            <mxPoint x="170" y="80" as="targetPoint" />
            <Array as="points" />
          </mxGeometry>
        </mxCell>
        <mxCell id="w70OvWrSIaJXiOuPBBVO-6" value="&lt;font style=&quot;font-size: 10px;&quot;&gt;Επιλογή &lt;br&gt;Χάρτης&lt;/font&gt;" style="edgeLabel;resizable=0;html=1;align=center;verticalAlign=middle;" parent="w70OvWrSIaJXiOuPBBVO-5" connectable="0" vertex="1">
          <mxGeometry relative="1" as="geometry">
            <mxPoint x="-5" y="-20" as="offset" />
          </mxGeometry>
        </mxCell>
        <mxCell id="w70OvWrSIaJXiOuPBBVO-7" value="&lt;font style=&quot;font-size: 10px;&quot;&gt;Κεντρικό&amp;nbsp;&lt;br&gt;Μενού&lt;/font&gt;" style="shape=umlBoundary;whiteSpace=wrap;html=1;" parent="1" vertex="1">
          <mxGeometry x="170" y="40" width="100" height="80" as="geometry" />
        </mxCell>
        <mxCell id="w70OvWrSIaJXiOuPBBVO-8" value="&lt;font style=&quot;font-size: 10px;&quot;&gt;Εμφάνισε&lt;/font&gt;" style="ellipse;shape=umlControl;whiteSpace=wrap;html=1;" parent="1" vertex="1">
          <mxGeometry x="160" y="150" width="70" height="80" as="geometry" />
        </mxCell>
        <mxCell id="w70OvWrSIaJXiOuPBBVO-9" value="" style="endArrow=classic;html=1;rounded=0;entryX=0.7;entryY=0.15;entryDx=0;entryDy=0;entryPerimeter=0;" parent="1" source="w70OvWrSIaJXiOuPBBVO-7" target="w70OvWrSIaJXiOuPBBVO-8" edge="1">
          <mxGeometry width="50" height="50" relative="1" as="geometry">
            <mxPoint x="224.5" y="120" as="sourcePoint" />
            <mxPoint x="224.5" y="150" as="targetPoint" />
          </mxGeometry>
        </mxCell>
        <mxCell id="w70OvWrSIaJXiOuPBBVO-11" value="" style="endArrow=classic;html=1;rounded=0;exitX=0.357;exitY=1;exitDx=0;exitDy=0;exitPerimeter=0;" parent="1" source="w70OvWrSIaJXiOuPBBVO-8" target="w70OvWrSIaJXiOuPBBVO-21" edge="1">
          <mxGeometry width="50" height="50" relative="1" as="geometry">
            <mxPoint x="260" y="200" as="sourcePoint" />
            <mxPoint x="222.5588506177337" y="270.08193036335615" as="targetPoint" />
            <Array as="points" />
          </mxGeometry>
        </mxCell>
        <mxCell id="w70OvWrSIaJXiOuPBBVO-13" value="&lt;font style=&quot;font-size: 9px;&quot;&gt;Έλεγχος για ενεργοποιημένη τοποθεσία&amp;nbsp;&lt;/font&gt;" style="ellipse;shape=umlControl;whiteSpace=wrap;html=1;" parent="1" vertex="1">
          <mxGeometry x="240" y="390" width="70" height="80" as="geometry" />
        </mxCell>
        <mxCell id="w70OvWrSIaJXiOuPBBVO-18" value="&lt;font style=&quot;font-size: 10px;&quot;&gt;Εμφάνισε&lt;/font&gt;" style="ellipse;shape=umlControl;whiteSpace=wrap;html=1;" parent="1" vertex="1">
          <mxGeometry x="340" y="40" width="70" height="80" as="geometry" />
        </mxCell>
        <mxCell id="w70OvWrSIaJXiOuPBBVO-20" value="" style="endArrow=classic;html=1;rounded=0;entryX=1.03;entryY=0.5;entryDx=0;entryDy=0;entryPerimeter=0;" parent="1" target="w70OvWrSIaJXiOuPBBVO-7" edge="1">
          <mxGeometry width="50" height="50" relative="1" as="geometry">
            <mxPoint x="340" y="80" as="sourcePoint" />
            <mxPoint x="270" y="79.5" as="targetPoint" />
          </mxGeometry>
        </mxCell>
        <mxCell id="w70OvWrSIaJXiOuPBBVO-21" value="&lt;font style=&quot;font-size: 10px;&quot;&gt;Διαδραστικός&amp;nbsp;&lt;br style=&quot;border-color: var(--border-color);&quot;&gt;&lt;/font&gt;&lt;span style=&quot;font-size: 10px;&quot;&gt;Χάρτης&lt;/span&gt;" style="shape=umlBoundary;whiteSpace=wrap;html=1;" parent="1" vertex="1">
          <mxGeometry x="120" y="260" width="100" height="80" as="geometry" />
        </mxCell>
        <mxCell id="w70OvWrSIaJXiOuPBBVO-22" value="" style="endArrow=classic;html=1;rounded=0;exitX=0.92;exitY=0.838;exitDx=0;exitDy=0;exitPerimeter=0;entryX=0.3;entryY=0.138;entryDx=0;entryDy=0;entryPerimeter=0;" parent="1" source="w70OvWrSIaJXiOuPBBVO-21" target="w70OvWrSIaJXiOuPBBVO-13" edge="1">
          <mxGeometry width="50" height="50" relative="1" as="geometry">
            <mxPoint x="220" y="350" as="sourcePoint" />
            <mxPoint x="260" y="410" as="targetPoint" />
          </mxGeometry>
        </mxCell>
        <mxCell id="w70OvWrSIaJXiOuPBBVO-23" value="" style="endArrow=classic;html=1;rounded=0;exitX=1.029;exitY=0.563;exitDx=0;exitDy=0;exitPerimeter=0;entryX=0.029;entryY=0.463;entryDx=0;entryDy=0;entryPerimeter=0;" parent="1" source="w70OvWrSIaJXiOuPBBVO-13" target="w70OvWrSIaJXiOuPBBVO-26" edge="1">
          <mxGeometry width="50" height="50" relative="1" as="geometry">
            <mxPoint x="260" y="440" as="sourcePoint" />
            <mxPoint x="300" y="455" as="targetPoint" />
            <Array as="points" />
          </mxGeometry>
        </mxCell>
        <mxCell id="w70OvWrSIaJXiOuPBBVO-25" value="&lt;font style=&quot;font-size: 10px;&quot;&gt;ΝΑΙ&lt;/font&gt;" style="text;html=1;align=center;verticalAlign=middle;whiteSpace=wrap;rounded=0;fillColor=none;" parent="1" vertex="1">
          <mxGeometry x="310" y="415" width="60" height="30" as="geometry" />
        </mxCell>
        <mxCell id="w70OvWrSIaJXiOuPBBVO-26" value="&lt;font style=&quot;font-size: 10px;&quot;&gt;Εμφάνισε&lt;/font&gt;" style="ellipse;shape=umlControl;whiteSpace=wrap;html=1;" parent="1" vertex="1">
          <mxGeometry x="360" y="420" width="70" height="80" as="geometry" />
        </mxCell>
        <mxCell id="w70OvWrSIaJXiOuPBBVO-27" value="" style="endArrow=classic;html=1;rounded=0;exitX=0.986;exitY=0.663;exitDx=0;exitDy=0;exitPerimeter=0;" parent="1" source="w70OvWrSIaJXiOuPBBVO-26" target="w70OvWrSIaJXiOuPBBVO-28" edge="1">
          <mxGeometry width="50" height="50" relative="1" as="geometry">
            <mxPoint x="380" y="480" as="sourcePoint" />
            <mxPoint x="430" y="437" as="targetPoint" />
          </mxGeometry>
        </mxCell>
        <mxCell id="w70OvWrSIaJXiOuPBBVO-28" value="&lt;font style=&quot;font-size: 10px;&quot;&gt;Ακριβής Τοποθεσία φοιτητή&lt;/font&gt;" style="ellipse;shape=umlEntity;whiteSpace=wrap;html=1;" parent="1" vertex="1">
          <mxGeometry x="450" y="445" width="80" height="80" as="geometry" />
        </mxCell>
        <mxCell id="w70OvWrSIaJXiOuPBBVO-29" value="" style="curved=1;endArrow=classic;html=1;rounded=0;exitX=0.014;exitY=0.325;exitDx=0;exitDy=0;exitPerimeter=0;entryX=0.72;entryY=1.025;entryDx=0;entryDy=0;entryPerimeter=0;" parent="1" source="w70OvWrSIaJXiOuPBBVO-13" target="w70OvWrSIaJXiOuPBBVO-21" edge="1">
          <mxGeometry width="50" height="50" relative="1" as="geometry">
            <mxPoint x="130" y="410" as="sourcePoint" />
            <mxPoint x="180" y="360" as="targetPoint" />
            <Array as="points">
              <mxPoint x="190" y="390" />
            </Array>
          </mxGeometry>
        </mxCell>
        <mxCell id="w70OvWrSIaJXiOuPBBVO-30" value="&lt;font style=&quot;font-size: 10px;&quot;&gt;ΟΧΙ&lt;/font&gt;" style="text;html=1;strokeColor=none;fillColor=none;align=center;verticalAlign=middle;whiteSpace=wrap;rounded=0;" parent="1" vertex="1">
          <mxGeometry x="190" y="370" width="50" height="30" as="geometry" />
        </mxCell>
        <mxCell id="w70OvWrSIaJXiOuPBBVO-34" value="&lt;font style=&quot;font-size: 10px;&quot;&gt;Εμφάνισε&lt;/font&gt;" style="ellipse;shape=umlControl;whiteSpace=wrap;html=1;" parent="1" vertex="1">
          <mxGeometry x="390" y="140" width="70" height="80" as="geometry" />
        </mxCell>
        <mxCell id="w70OvWrSIaJXiOuPBBVO-35" value="&lt;font style=&quot;font-size: 10px;&quot;&gt;&quot;Συννεφάκια&quot; για τα κτίρια στον χάρτη&lt;/font&gt;" style="ellipse;shape=umlEntity;whiteSpace=wrap;html=1;" parent="1" vertex="1">
          <mxGeometry x="530" y="130" width="80" height="80" as="geometry" />
        </mxCell>
        <mxCell id="w70OvWrSIaJXiOuPBBVO-36" value="" style="endArrow=classic;html=1;rounded=0;exitX=0.986;exitY=0.6;exitDx=0;exitDy=0;exitPerimeter=0;entryX=-0.037;entryY=0.6;entryDx=0;entryDy=0;entryPerimeter=0;" parent="1" source="w70OvWrSIaJXiOuPBBVO-34" target="w70OvWrSIaJXiOuPBBVO-35" edge="1">
          <mxGeometry width="50" height="50" relative="1" as="geometry">
            <mxPoint x="380" y="260" as="sourcePoint" />
            <mxPoint x="430" y="210" as="targetPoint" />
          </mxGeometry>
        </mxCell>
        <mxCell id="w70OvWrSIaJXiOuPBBVO-39" value="&lt;font style=&quot;font-size: 10px;&quot;&gt;επιλογή συννέφου&lt;/font&gt;" style="text;html=1;strokeColor=none;fillColor=default;align=center;verticalAlign=middle;whiteSpace=wrap;rounded=0;" parent="1" vertex="1">
          <mxGeometry x="620" y="130" width="60" height="30" as="geometry" />
        </mxCell>
        <mxCell id="w70OvWrSIaJXiOuPBBVO-41" value="" style="endArrow=classic;html=1;rounded=0;exitX=1;exitY=0.5;exitDx=0;exitDy=0;entryX=0.029;entryY=0.588;entryDx=0;entryDy=0;entryPerimeter=0;" parent="1" source="w70OvWrSIaJXiOuPBBVO-35" target="w70OvWrSIaJXiOuPBBVO-42" edge="1">
          <mxGeometry width="50" height="50" relative="1" as="geometry">
            <mxPoint x="600" y="200" as="sourcePoint" />
            <mxPoint x="640" y="190" as="targetPoint" />
          </mxGeometry>
        </mxCell>
        <mxCell id="w70OvWrSIaJXiOuPBBVO-42" value="&lt;font style=&quot;font-size: 10px;&quot;&gt;Εμφάνισε&lt;/font&gt;" style="ellipse;shape=umlControl;whiteSpace=wrap;html=1;" parent="1" vertex="1">
          <mxGeometry x="690" y="130" width="70" height="80" as="geometry" />
        </mxCell>
        <mxCell id="w70OvWrSIaJXiOuPBBVO-43" value="" style="endArrow=classic;html=1;rounded=0;entryX=0.5;entryY=0;entryDx=0;entryDy=0;exitX=0.457;exitY=1.05;exitDx=0;exitDy=0;exitPerimeter=0;" parent="1" source="w70OvWrSIaJXiOuPBBVO-42" target="w70OvWrSIaJXiOuPBBVO-44" edge="1">
          <mxGeometry width="50" height="50" relative="1" as="geometry">
            <mxPoint x="700" y="240" as="sourcePoint" />
            <mxPoint x="700" y="250" as="targetPoint" />
          </mxGeometry>
        </mxCell>
        <mxCell id="w70OvWrSIaJXiOuPBBVO-44" value="&lt;font style=&quot;font-size: 10px;&quot;&gt;Πληροφορίες κτιρίου&lt;/font&gt;" style="ellipse;shape=umlEntity;whiteSpace=wrap;html=1;" parent="1" vertex="1">
          <mxGeometry x="670" y="270" width="80" height="80" as="geometry" />
        </mxCell>
        <mxCell id="w70OvWrSIaJXiOuPBBVO-45" value="" style="endArrow=classic;html=1;rounded=0;exitX=0.4;exitY=0.025;exitDx=0;exitDy=0;exitPerimeter=0;entryX=0.5;entryY=0.988;entryDx=0;entryDy=0;entryPerimeter=0;" parent="1" source="w70OvWrSIaJXiOuPBBVO-28" target="w70OvWrSIaJXiOuPBBVO-34" edge="1">
          <mxGeometry width="50" height="50" relative="1" as="geometry">
            <mxPoint x="470" y="390" as="sourcePoint" />
            <mxPoint x="476.0013551485654" y="389.499621355548" as="targetPoint" />
          </mxGeometry>
        </mxCell>
        <mxCell id="w70OvWrSIaJXiOuPBBVO-47" value="" style="endArrow=classic;html=1;rounded=0;entryX=0.5;entryY=0;entryDx=0;entryDy=0;exitX=0.5;exitY=1;exitDx=0;exitDy=0;" parent="1" source="w70OvWrSIaJXiOuPBBVO-44" target="w70OvWrSIaJXiOuPBBVO-54" edge="1">
          <mxGeometry width="50" height="50" relative="1" as="geometry">
            <mxPoint x="679.5" y="360" as="sourcePoint" />
            <mxPoint x="679.9000000000001" y="420" as="targetPoint" />
          </mxGeometry>
        </mxCell>
        <mxCell id="w70OvWrSIaJXiOuPBBVO-49" value="&lt;font style=&quot;font-size: 10px;&quot;&gt;Επιλογή ιστοτόπου&lt;/font&gt;" style="text;html=1;strokeColor=none;fillColor=default;align=center;verticalAlign=middle;whiteSpace=wrap;rounded=0;" parent="1" vertex="1">
          <mxGeometry x="680" y="400" width="60" height="30" as="geometry" />
        </mxCell>
        <mxCell id="w70OvWrSIaJXiOuPBBVO-50" style="edgeStyle=orthogonalEdgeStyle;rounded=0;orthogonalLoop=1;jettySize=auto;html=1;exitX=0.5;exitY=1;exitDx=0;exitDy=0;" parent="1" source="w70OvWrSIaJXiOuPBBVO-49" target="w70OvWrSIaJXiOuPBBVO-49" edge="1">
          <mxGeometry relative="1" as="geometry" />
        </mxCell>
        <mxCell id="w70OvWrSIaJXiOuPBBVO-51" value="" style="curved=1;endArrow=classic;html=1;rounded=0;exitX=0.87;exitY=0.113;exitDx=0;exitDy=0;exitPerimeter=0;entryX=0.1;entryY=0.925;entryDx=0;entryDy=0;entryPerimeter=0;" parent="1" source="w70OvWrSIaJXiOuPBBVO-21" target="w70OvWrSIaJXiOuPBBVO-18" edge="1">
          <mxGeometry width="50" height="50" relative="1" as="geometry">
            <mxPoint x="254" y="280" as="sourcePoint" />
            <mxPoint x="295" y="170" as="targetPoint" />
            <Array as="points" />
          </mxGeometry>
        </mxCell>
        <mxCell id="w70OvWrSIaJXiOuPBBVO-54" value="&lt;font style=&quot;font-size: 10px;&quot;&gt;Ιστότοπος&lt;/font&gt;" style="ellipse;shape=umlEntity;whiteSpace=wrap;html=1;" parent="1" vertex="1">
          <mxGeometry x="690" y="470" width="80" height="80" as="geometry" />
        </mxCell>
        <mxCell id="w70OvWrSIaJXiOuPBBVO-55" value="" style="curved=1;endArrow=classic;html=1;rounded=0;exitX=1;exitY=0.5;exitDx=0;exitDy=0;entryX=1;entryY=0.5;entryDx=0;entryDy=0;" parent="1" source="w70OvWrSIaJXiOuPBBVO-54" target="w70OvWrSIaJXiOuPBBVO-44" edge="1">
          <mxGeometry width="50" height="50" relative="1" as="geometry">
            <mxPoint x="730" y="470" as="sourcePoint" />
            <mxPoint x="730" y="330" as="targetPoint" />
            <Array as="points">
              <mxPoint x="780" y="430" />
            </Array>
          </mxGeometry>
        </mxCell>
        <mxCell id="w70OvWrSIaJXiOuPBBVO-56" value="&lt;font style=&quot;font-size: 10px;&quot;&gt;Επιλογή επιστροφής&lt;/font&gt;" style="text;html=1;strokeColor=none;fillColor=default;align=center;verticalAlign=middle;whiteSpace=wrap;rounded=0;" parent="1" vertex="1">
          <mxGeometry x="740" y="350" width="60" height="30" as="geometry" />
        </mxCell>
        <mxCell id="w70OvWrSIaJXiOuPBBVO-57" value="" style="endArrow=classic;html=1;rounded=0;exitX=0.363;exitY=0.013;exitDx=0;exitDy=0;exitPerimeter=0;entryX=0.85;entryY=1.038;entryDx=0;entryDy=0;entryPerimeter=0;" parent="1" source="w70OvWrSIaJXiOuPBBVO-44" target="w70OvWrSIaJXiOuPBBVO-35" edge="1">
          <mxGeometry width="50" height="50" relative="1" as="geometry">
            <mxPoint x="560" y="345" as="sourcePoint" />
            <mxPoint x="560" y="270" as="targetPoint" />
          </mxGeometry>
        </mxCell>
        <mxCell id="w70OvWrSIaJXiOuPBBVO-58" value="&lt;font style=&quot;font-size: 10px;&quot;&gt;Επιλογή επιστροφής&lt;/font&gt;" style="text;html=1;strokeColor=none;fillColor=default;align=center;verticalAlign=middle;whiteSpace=wrap;rounded=0;" parent="1" vertex="1">
          <mxGeometry x="620" y="220" width="60" height="30" as="geometry" />
        </mxCell>
        <mxCell id="w70OvWrSIaJXiOuPBBVO-59" value="" style="endArrow=classic;html=1;rounded=0;exitX=1;exitY=0.675;exitDx=0;exitDy=0;exitPerimeter=0;entryX=-0.029;entryY=0.538;entryDx=0;entryDy=0;entryPerimeter=0;" parent="1" source="w70OvWrSIaJXiOuPBBVO-21" target="w70OvWrSIaJXiOuPBBVO-63" edge="1">
          <mxGeometry width="50" height="50" relative="1" as="geometry">
            <mxPoint x="265" y="345" as="sourcePoint" />
            <mxPoint x="350" y="324" as="targetPoint" />
          </mxGeometry>
        </mxCell>
        <mxCell id="w70OvWrSIaJXiOuPBBVO-61" value="&lt;font style=&quot;font-size: 10px;&quot;&gt;Επιλογή μεγέθυνσης/σμίκρυνσης&lt;/font&gt;" style="text;html=1;strokeColor=none;fillColor=default;align=center;verticalAlign=middle;whiteSpace=wrap;rounded=0;" parent="1" vertex="1">
          <mxGeometry x="260" y="290" width="70" height="50" as="geometry" />
        </mxCell>
        <mxCell id="w70OvWrSIaJXiOuPBBVO-63" value="&lt;font style=&quot;font-size: 10px;&quot;&gt;Εμφάνισε&lt;/font&gt;" style="ellipse;shape=umlControl;whiteSpace=wrap;html=1;" parent="1" vertex="1">
          <mxGeometry x="360" y="280" width="70" height="80" as="geometry" />
        </mxCell>
        <mxCell id="w70OvWrSIaJXiOuPBBVO-64" value="&lt;font style=&quot;font-size: 10px;&quot;&gt;Χάρτης ύστερα από μεγέθυνση/σμίκρυνση&lt;/font&gt;" style="ellipse;shape=umlEntity;whiteSpace=wrap;html=1;" parent="1" vertex="1">
          <mxGeometry x="540" y="240" width="80" height="80" as="geometry" />
        </mxCell>
        <mxCell id="w70OvWrSIaJXiOuPBBVO-65" value="" style="endArrow=classic;html=1;rounded=0;entryX=0;entryY=0.5;entryDx=0;entryDy=0;exitX=1.014;exitY=0.65;exitDx=0;exitDy=0;exitPerimeter=0;" parent="1" source="w70OvWrSIaJXiOuPBBVO-63" target="w70OvWrSIaJXiOuPBBVO-64" edge="1">
          <mxGeometry width="50" height="50" relative="1" as="geometry">
            <mxPoint x="440" y="330" as="sourcePoint" />
            <mxPoint x="490" y="280" as="targetPoint" />
          </mxGeometry>
        </mxCell>
        <mxCell id="w70OvWrSIaJXiOuPBBVO-68" value="" style="endArrow=classic;html=1;rounded=0;entryX=1.014;entryY=0.75;entryDx=0;entryDy=0;entryPerimeter=0;exitX=0.25;exitY=0;exitDx=0;exitDy=0;exitPerimeter=0;" parent="1" source="w70OvWrSIaJXiOuPBBVO-64" target="w70OvWrSIaJXiOuPBBVO-34" edge="1">
          <mxGeometry width="50" height="50" relative="1" as="geometry">
            <mxPoint x="480" y="280" as="sourcePoint" />
            <mxPoint x="530" y="230" as="targetPoint" />
          </mxGeometry>
        </mxCell>
        <mxCell id="w70OvWrSIaJXiOuPBBVO-70" value="&lt;font style=&quot;font-size: 10px;&quot;&gt;Επιλογή τερματισμού&lt;/font&gt;" style="text;html=1;align=center;verticalAlign=middle;whiteSpace=wrap;rounded=0;fillColor=default;" parent="1" vertex="1">
          <mxGeometry x="290" y="140" width="60" height="30" as="geometry" />
        </mxCell>
        <mxCell id="w70OvWrSIaJXiOuPBBVO-71" value="" style="endArrow=classic;html=1;rounded=0;exitX=0.98;exitY=0.275;exitDx=0;exitDy=0;exitPerimeter=0;entryX=0.043;entryY=0.85;entryDx=0;entryDy=0;entryPerimeter=0;" parent="1" source="w70OvWrSIaJXiOuPBBVO-21" target="w70OvWrSIaJXiOuPBBVO-34" edge="1">
          <mxGeometry width="50" height="50" relative="1" as="geometry">
            <mxPoint x="218" y="282" as="sourcePoint" />
            <mxPoint x="303.4200000000001" y="245.89" as="targetPoint" />
          </mxGeometry>
        </mxCell>
        <mxCell id="w70OvWrSIaJXiOuPBBVO-73" value="&lt;font style=&quot;font-size: 10px;&quot;&gt;Πλοήγηση με αφή&lt;/font&gt;" style="text;html=1;strokeColor=none;fillColor=default;align=center;verticalAlign=middle;whiteSpace=wrap;rounded=0;" parent="1" vertex="1">
          <mxGeometry x="310" y="210" width="60" height="30" as="geometry" />
        </mxCell>
        <mxCell id="w70OvWrSIaJXiOuPBBVO-75" value="" style="endArrow=classic;html=1;rounded=0;exitX=0.43;exitY=1.038;exitDx=0;exitDy=0;exitPerimeter=0;" parent="1" source="w70OvWrSIaJXiOuPBBVO-21" edge="1">
          <mxGeometry width="50" height="50" relative="1" as="geometry">
            <mxPoint x="90" y="400" as="sourcePoint" />
            <mxPoint x="163" y="450" as="targetPoint" />
          </mxGeometry>
        </mxCell>
        <mxCell id="w70OvWrSIaJXiOuPBBVO-77" value="&lt;font style=&quot;font-size: 10px;&quot;&gt;Επιλογή εικονιδίου αναζήτησης&lt;/font&gt;" style="text;html=1;strokeColor=none;fillColor=default;align=center;verticalAlign=middle;whiteSpace=wrap;rounded=0;" parent="1" vertex="1">
          <mxGeometry x="110" y="365" width="76" height="45" as="geometry" />
        </mxCell>
        <mxCell id="w70OvWrSIaJXiOuPBBVO-78" value="&lt;font style=&quot;font-size: 10px;&quot;&gt;Εμφάνισε&lt;/font&gt;" style="ellipse;shape=umlControl;whiteSpace=wrap;html=1;" parent="1" vertex="1">
          <mxGeometry x="130" y="445" width="70" height="80" as="geometry" />
        </mxCell>
        <mxCell id="w70OvWrSIaJXiOuPBBVO-80" value="" style="endArrow=classic;html=1;rounded=0;entryX=0.61;entryY=0.025;entryDx=0;entryDy=0;entryPerimeter=0;" parent="1" target="w70OvWrSIaJXiOuPBBVO-99" edge="1">
          <mxGeometry width="50" height="50" relative="1" as="geometry">
            <mxPoint x="160" y="525" as="sourcePoint" />
            <mxPoint x="160" y="560" as="targetPoint" />
          </mxGeometry>
        </mxCell>
        <mxCell id="w70OvWrSIaJXiOuPBBVO-81" value="" style="endArrow=classic;html=1;rounded=0;" parent="1" edge="1">
          <mxGeometry width="50" height="50" relative="1" as="geometry">
            <mxPoint x="200" y="600" as="sourcePoint" />
            <mxPoint x="280" y="600" as="targetPoint" />
          </mxGeometry>
        </mxCell>
        <mxCell id="w70OvWrSIaJXiOuPBBVO-83" value="&lt;font style=&quot;font-size: 10px;&quot;&gt;Πληκτρογράφηση&lt;/font&gt;" style="text;html=1;strokeColor=none;fillColor=default;align=center;verticalAlign=middle;whiteSpace=wrap;rounded=0;" parent="1" vertex="1">
          <mxGeometry x="200" y="570" width="80" height="20" as="geometry" />
        </mxCell>
        <mxCell id="w70OvWrSIaJXiOuPBBVO-84" value="&lt;font style=&quot;font-size: 10px;&quot;&gt;Αναζήτηση από σύστημα&lt;/font&gt;" style="ellipse;shape=umlControl;whiteSpace=wrap;html=1;" parent="1" vertex="1">
          <mxGeometry x="285" y="560" width="70" height="80" as="geometry" />
        </mxCell>
        <mxCell id="w70OvWrSIaJXiOuPBBVO-85" value="&lt;font style=&quot;font-size: 10px;&quot;&gt;Επιθυμητή τοποθεσία&lt;/font&gt;" style="ellipse;shape=umlEntity;whiteSpace=wrap;html=1;" parent="1" vertex="1">
          <mxGeometry x="600" y="560" width="80" height="80" as="geometry" />
        </mxCell>
        <mxCell id="w70OvWrSIaJXiOuPBBVO-86" value="&lt;font style=&quot;font-size: 10px;&quot;&gt;Εμφάνισε&lt;/font&gt;" style="ellipse;shape=umlControl;whiteSpace=wrap;html=1;" parent="1" vertex="1">
          <mxGeometry x="440" y="560" width="70" height="80" as="geometry" />
        </mxCell>
        <mxCell id="w70OvWrSIaJXiOuPBBVO-87" value="" style="endArrow=classic;html=1;rounded=0;entryX=-0.029;entryY=0.588;entryDx=0;entryDy=0;entryPerimeter=0;exitX=1.029;exitY=0.6;exitDx=0;exitDy=0;exitPerimeter=0;" parent="1" source="w70OvWrSIaJXiOuPBBVO-84" target="w70OvWrSIaJXiOuPBBVO-86" edge="1">
          <mxGeometry width="50" height="50" relative="1" as="geometry">
            <mxPoint x="355" y="610" as="sourcePoint" />
            <mxPoint x="405" y="560" as="targetPoint" />
          </mxGeometry>
        </mxCell>
        <mxCell id="w70OvWrSIaJXiOuPBBVO-88" value="" style="endArrow=classic;html=1;rounded=0;entryX=0;entryY=0.5;entryDx=0;entryDy=0;" parent="1" target="w70OvWrSIaJXiOuPBBVO-85" edge="1">
          <mxGeometry width="50" height="50" relative="1" as="geometry">
            <mxPoint x="510" y="605" as="sourcePoint" />
            <mxPoint x="590" y="600" as="targetPoint" />
          </mxGeometry>
        </mxCell>
        <mxCell id="w70OvWrSIaJXiOuPBBVO-90" value="" style="endArrow=classic;html=1;rounded=0;" parent="1" target="w70OvWrSIaJXiOuPBBVO-34" edge="1">
          <mxGeometry width="50" height="50" relative="1" as="geometry">
            <mxPoint x="625" y="560" as="sourcePoint" />
            <mxPoint x="675" y="510" as="targetPoint" />
          </mxGeometry>
        </mxCell>
        <mxCell id="w70OvWrSIaJXiOuPBBVO-91" value="&lt;font style=&quot;font-size: 10px;&quot;&gt;Επιτυχία&lt;/font&gt;" style="text;html=1;strokeColor=none;fillColor=default;align=center;verticalAlign=middle;whiteSpace=wrap;rounded=0;" parent="1" vertex="1">
          <mxGeometry x="365" y="580" width="60" height="20" as="geometry" />
        </mxCell>
        <mxCell id="w70OvWrSIaJXiOuPBBVO-92" value="" style="endArrow=classic;html=1;rounded=0;entryX=0.771;entryY=0.188;entryDx=0;entryDy=0;entryPerimeter=0;" parent="1" target="w70OvWrSIaJXiOuPBBVO-95" edge="1">
          <mxGeometry width="50" height="50" relative="1" as="geometry">
            <mxPoint x="320" y="640" as="sourcePoint" />
            <mxPoint x="320" y="690" as="targetPoint" />
          </mxGeometry>
        </mxCell>
        <mxCell id="w70OvWrSIaJXiOuPBBVO-93" value="&lt;span style=&quot;font-size: 10px;&quot;&gt;Αποτυχία&lt;/span&gt;" style="text;html=1;strokeColor=none;fillColor=default;align=center;verticalAlign=middle;whiteSpace=wrap;rounded=0;" parent="1" vertex="1">
          <mxGeometry x="300" y="650" width="60" height="20" as="geometry" />
        </mxCell>
        <mxCell id="w70OvWrSIaJXiOuPBBVO-95" value="&lt;font style=&quot;font-size: 10px;&quot;&gt;Εμφάνισε&lt;/font&gt;" style="ellipse;shape=umlControl;whiteSpace=wrap;html=1;" parent="1" vertex="1">
          <mxGeometry x="240" y="670" width="70" height="80" as="geometry" />
        </mxCell>
        <mxCell id="w70OvWrSIaJXiOuPBBVO-96" value="&lt;font style=&quot;font-size: 10px;&quot;&gt;Μήνυμα αποτυχίας&lt;/font&gt;" style="shape=umlBoundary;whiteSpace=wrap;html=1;" parent="1" vertex="1">
          <mxGeometry x="98" y="670" width="100" height="80" as="geometry" />
        </mxCell>
        <mxCell id="w70OvWrSIaJXiOuPBBVO-97" value="" style="endArrow=classic;html=1;rounded=0;exitX=-0.043;exitY=0.5;exitDx=0;exitDy=0;exitPerimeter=0;" parent="1" source="w70OvWrSIaJXiOuPBBVO-95" edge="1">
          <mxGeometry width="50" height="50" relative="1" as="geometry">
            <mxPoint x="230" y="720" as="sourcePoint" />
            <mxPoint x="200" y="710" as="targetPoint" />
          </mxGeometry>
        </mxCell>
        <mxCell id="w70OvWrSIaJXiOuPBBVO-98" value="" style="curved=1;endArrow=classic;html=1;rounded=0;exitX=0.19;exitY=0.4;exitDx=0;exitDy=0;exitPerimeter=0;entryX=0.19;entryY=0.775;entryDx=0;entryDy=0;entryPerimeter=0;" parent="1" source="w70OvWrSIaJXiOuPBBVO-96" target="w70OvWrSIaJXiOuPBBVO-99" edge="1">
          <mxGeometry width="50" height="50" relative="1" as="geometry">
            <mxPoint x="50" y="680" as="sourcePoint" />
            <mxPoint x="120" y="590" as="targetPoint" />
            <Array as="points">
              <mxPoint x="80" y="680" />
              <mxPoint x="80" y="650" />
            </Array>
          </mxGeometry>
        </mxCell>
        <mxCell id="w70OvWrSIaJXiOuPBBVO-100" value="" style="edgeStyle=orthogonalEdgeStyle;rounded=0;orthogonalLoop=1;jettySize=auto;html=1;exitX=1.02;exitY=0.5;exitDx=0;exitDy=0;exitPerimeter=0;" parent="1" source="w70OvWrSIaJXiOuPBBVO-99" target="w70OvWrSIaJXiOuPBBVO-84" edge="1">
          <mxGeometry relative="1" as="geometry" />
        </mxCell>
        <mxCell id="w70OvWrSIaJXiOuPBBVO-99" value="&lt;font style=&quot;font-size: 10px;&quot;&gt;Κενό πεδίο συμμπλήρωσης&lt;/font&gt;" style="shape=umlBoundary;whiteSpace=wrap;html=1;" parent="1" vertex="1">
          <mxGeometry x="100" y="560" width="100" height="80" as="geometry" />
        </mxCell>
        <mxCell id="w70OvWrSIaJXiOuPBBVO-101" value="&lt;font style=&quot;font-size: 10px;&quot;&gt;Επιλογή επιστροφής&lt;/font&gt;" style="text;html=1;align=center;verticalAlign=middle;whiteSpace=wrap;rounded=0;fillColor=default;" parent="1" vertex="1">
          <mxGeometry x="30" y="440" width="60" height="30" as="geometry" />
        </mxCell>
        <mxCell id="w70OvWrSIaJXiOuPBBVO-102" value="" style="curved=1;endArrow=classic;html=1;rounded=0;entryX=0.22;entryY=0.738;entryDx=0;entryDy=0;entryPerimeter=0;exitX=0.22;exitY=0.225;exitDx=0;exitDy=0;exitPerimeter=0;" parent="1" source="w70OvWrSIaJXiOuPBBVO-99" target="w70OvWrSIaJXiOuPBBVO-21" edge="1">
          <mxGeometry width="50" height="50" relative="1" as="geometry">
            <mxPoint x="40" y="535" as="sourcePoint" />
            <mxPoint x="90" y="485" as="targetPoint" />
            <Array as="points">
              <mxPoint x="50" y="450" />
            </Array>
          </mxGeometry>
        </mxCell>
      </root>
    </mxGraphModel>
  </diagram>
</mxfile>
